#!OML:ASF F:\VICON\USERDATA\INSTALL\rory3\rory3.ASF
:FULLY-SPECIFIED
:DEGREES
96
root -13.8738 17.7137 -2.33045 -0.128174 -8.45659 -4.10997
lowerback 9.5828 3.19582 4.52405
upperback 0.0810378 4.80792 1.08506
thorax -5.00569 2.27302 -2.05104
lowerneck -23.2758 -5.61549 -11.2345
upperneck 28.1236 -6.55405 8.4612
head 14.2156 -2.88221 4.07966
rclavicle 3.47935e-014 1.39149e-015
rhumerus -25.2 -7.78177 -81.5696
rradius 32.2963
rwrist 4.52903
rhand -16.0158 9.68005
rfingers 7.12502
rthumb 10.1849 -20.0534
lclavicle 3.47935e-014 1.39149e-015
lhumerus -36.9877 9.06323 81.8159
lradius 25.8273
lwrist -11.7457
lhand -18.3692 25.627
lfingers 7.12502
lthumb 7.91402 55.4588
rfemur 6.43644 1.04689 30.4359
rtibia 19.1052
rfoot -16.8029 -0.794968
rtoes 1.698
lfemur -24.7504 -1.17517 -13.676
ltibia 19.3853
lfoot -3.45028 8.76469
ltoes -10.7465
97
root -13.8753 17.7025 -2.18835 0.0410338 -8.68472 -4.15378
lowerback 9.46607 3.21599 4.54675
upperback 0.00185403 4.834 1.08595
thorax -5.02 2.28406 -2.06108
lowerneck -23.2244 -5.50692 -11.1326
upperneck 28.1354 -6.42185 8.40087
head 14.1853 -2.8239 4.06416
rclavicle -3.62285e-014 9.93923e-016
rhumerus -24.931 -7.60239 -81.6941
rradius 32.294
rwrist 4.6306
rhand -16.0336 9.56995
rfingers 7.12502
rthumb 10.1678 -20.1644
lclavicle -3.62285e-014 9.93923e-016
lhumerus -37.1841 9.34747 81.6261
lradius 25.3837
lwrist -12.1595
lhand -18.1533 25.6856
lfingers 7.12502
lthumb 8.12242 55.5095
rfemur 6.93623 1.15235 30.3971
rtibia 18.7403
rfoot -16.7031 -0.653511
rtoes 1.6333
lfemur -24.7333 -2.11362 -13.2187
ltibia 17.4586
lfoot -3.51526 8.89042
ltoes -13.2953
98
root -13.8759 17.6898 -2.041 0.186927 -8.93196 -4.16803
lowerback 9.33885 3.23959 4.59847
upperback -0.0445006 4.86275 1.03171
thorax -4.9864 2.2969 -2.1425
lowerneck -23.236 -5.41427 -11.0515
upperneck 28.1267 -6.33682 8.46022
head 14.1718 -2.77006 4.0917
rclavicle -3.8881e-014 8.19987e-015
rhumerus -24.5729 -7.48946 -81.9201
rradius 32.2236
rwrist 4.65685
rhand -16.2731 9.54348
rfingers 7.12502
rthumb 9.93671 -20.202
lclavicle -3.8881e-014 8.19987e-015
lhumerus -37.3825 9.53968 81.4242
lradius 24.9939
lwrist -12.6194
lhand -17.4526 26.1712
lfingers 7.12502
lthumb 8.79864 55.9678
rfemur 7.48001 1.10609 30.2567
rtibia 18.4057
rfoot -16.6836 -0.284636
rtoes 1.80881
lfemur -24.7012 -3.48102 -12.6426
ltibia 15.6878
lfoot -3.69811 9.51797
ltoes -14.5583
99
root -13.877 17.6808 -1.89252 0.298222 -9.19584 -4.14416
lowerback 9.23099 3.28391 4.60473
upperback -0.0807134 4.91457 0.972626
thorax -4.95462 2.32227 -2.20741
lowerneck -23.2582 -5.38191 -10.9095
upperneck 28.125 -6.32608 8.40753
head 14.166 -2.75666 4.04735
rclavicle 1.55425e-014 -9.93923e-016
rhumerus -24.2282 -7.54328 -82.0685
rradius 32.0317
rwrist 4.97436
rhand -16.1915 9.64129
rfingers 7.12502
rthumb 10.0154 -20.1004
lclavicle 1.55425e-014 -9.93923e-016
lhumerus -37.6325 9.34057 81.417
lradius 24.7549
lwrist -12.6025
lhand -16.9973 26.4457
lfingers 7.12502
lthumb 9.23791 56.2233
rfemur 8.0243 1.11376 30.0784
rtibia 18.1586
rfoot -16.7259 0.0211058
rtoes 1.72985
lfemur -24.6011 -5.26819 -11.9532
ltibia 14.0317
lfoot -3.85765 10.7448
ltoes -15.5035
100
root -13.8776 17.6687 -1.74877 0.449298 -9.37779 -4.13967
lowerback 9.17595 3.28213 4.58129
upperback -0.172306 4.91075 0.977716
thorax -5.02261 2.31789 -2.18865
lowerneck -23.303 -5.32707 -10.8026
upperneck 28.1777 -6.2342 8.2522
head 14.1755 -2.72643 3.98405
rclavicle -6.52573e-015 -1.90833e-014
rhumerus -23.9077 -7.53107 -82.1273
rradius 31.7827
rwrist 5.35881
rhand -16.091 9.68865
rfingers 7.12502
rthumb 10.1123 -20.0484
lclavicle -6.52573e-015 -1.90833e-014
lhumerus -37.8917 9.14068 81.498
lradius 24.4279
lwrist -12.48
lhand -17.3326 26.2435
lfingers 7.12502
lthumb 8.91441 56.0352
rfemur 8.45441 1.32084 30.0025
rtibia 18.0126
rfoot -16.6672 0.00234815
rtoes 1.52834
lfemur -24.5945 -6.98361 -11.246
ltibia 12.4948
lfoot -4.22515 12.0678
ltoes -15.3759
101
root -13.8768 17.6566 -1.60499 0.639136 -9.55595 -4.17861
lowerback 9.06525 3.28029 4.59813
upperback -0.243962 4.90773 0.995645
thorax -5.03612 2.31498 -2.17416
lowerneck -23.3598 -5.24019 -10.7852
upperneck 28.1961 -6.09958 8.22649
head 14.1768 -2.66926 3.99741
rclavicle -1.48126e-014 -9.14409e-015
rhumerus -23.5832 -7.44985 -82.2067
rradius 31.6741
rwrist 5.50241
rhand -16.0398 9.462
rfingers 7.12502
rthumb 10.1618 -20.2726
lclavicle -1.48126e-014 -9.14409e-015
lhumerus -38.0705 9.12462 81.5175
lradius 24.1323
lwrist -12.5673
lhand -17.5779 26.251
lfingers 7.12502
lthumb 8.67766 56.0526
rfemur 8.83024 1.53261 29.9669
rtibia 17.8972
rfoot -16.6407 0.00530994
rtoes 1.65287
lfemur -24.6456 -8.00503 -10.7187
ltibia 11.2186
lfoot -4.66354 12.9501
ltoes -16.5262
102
root -13.877 17.6445 -1.45508 0.748334 -9.67537 -4.19781
lowerback 8.90118 3.26967 4.59704
upperback -0.220504 4.88394 1.0149
thorax -4.92255 2.30738 -2.13829
lowerneck -23.5133 -5.22595 -10.8275
upperneck 28.2059 -6.06011 8.27133
head 14.2122 -2.64764 4.03088
rclavicle 2.10743e-014 -6.85807e-015
rhumerus -23.289 -7.38904 -82.2989
rradius 31.7317
rwrist 5.561
rhand -15.8489 9.10381
rfingers 7.12502
rthumb 10.3459 -20.6217
lclavicle 2.10743e-014 -6.85807e-015
lhumerus -38.1026 9.35958 81.4403
lradius 23.7734
lwrist -12.8644
lhand -17.8316 26.0126
lfingers 7.12502
lthumb 8.43287 55.8242
rfemur 9.3293 1.67245 29.8981
rtibia 17.7652
rfoot -16.5896 0.115259
rtoes 1.549
lfemur -24.5837 -8.41975 -10.5048
ltibia 10.2912
lfoot -4.8098 13.2568
ltoes -19.8186
103
root -13.8767 17.6313 -1.30542 0.798872 -9.75022 -4.23455
lowerback 8.87043 3.23763 4.65142
upperback -0.214543 4.84516 1.02097
thorax -4.89769 2.28775 -2.1551
lowerneck -23.7326 -5.2189 -10.7982
upperneck 28.3157 -6.03441 8.24358
head 14.3011 -2.63364 4.02247
rclavicle -3.47873e-015 1.63997e-015
rhumerus -23.1141 -7.36709 -82.439
rradius 31.8235
rwrist 5.45844
rhand -15.8413 8.89866
rfingers 7.12502
rthumb 10.3532 -20.8265
lclavicle -3.47873e-015 1.63997e-015
lhumerus -38.1701 10.0286 81.113
lradius 23.3489
lwrist -13.6584
lhand -18.0042 25.756
lfingers 7.12502
lthumb 8.2663 55.5743
rfemur 9.90557 1.7744 29.8477
rtibia 17.6023
rfoot -16.4608 0.207456
rtoes 1.58983
lfemur -24.4107 -7.47921 -10.9309
ltibia 9.68527
lfoot -4.99073 12.4201
ltoes -22.2689
104
root -13.8757 17.6222 -1.1585 0.849216 -9.77209 -4.29474
lowerback 8.89422 3.19496 4.75825
upperback -0.219114 4.79988 0.999017
thorax -4.90843 2.26199 -2.23342
lowerneck -24.0164 -5.16906 -10.5904
upperneck 28.4421 -5.97523 8.10684
head 14.3953 -2.59927 3.94485
rclavicle 3.9437e-014 -8.05078e-015
rhumerus -22.88 -7.43038 -82.6147
rradius 31.7354
rwrist 5.4106
rhand -16.2286 9.2304
rfingers 7.12502
rthumb 9.97957 -20.513
lclavicle 3.9437e-014 -8.05078e-015
lhumerus -38.2899 10.1683 81.0141
lradius 23.1944
lwrist -13.8977
lhand -17.9391 25.5244
lfingers 7.12502
lthumb 8.32915 55.3402
rfemur 10.4571 1.89145 29.8513
rtibia 17.4455
rfoot -16.2891 0.279449
rtoes 2.22019
lfemur -24.3273 -6.57536 -11.2966
ltibia 9.36049
lfoot -5.0287 11.7781
ltoes -22.6691
105
root -13.8749 17.6139 -1.00916 0.930968 -9.75723 -4.30391
lowerback 8.89013 3.14604 4.74091
upperback -0.287737 4.73714 1.02483
thorax -4.98616 2.22851 -2.19221
lowerneck -24.079 -5.13465 -10.5996
upperneck 28.5241 -5.9206 8.11019
head 14.4384 -2.57609 3.96159
rclavicle -1.74247e-014 4.32357e-015
rhumerus -22.7755 -7.50697 -82.6391
rradius 31.6639
rwrist 5.7014
rhand -16.2572 9.68045
rfingers 7.12502
rthumb 9.95205 -20.0643
lclavicle -1.74247e-014 4.32357e-015
lhumerus -38.5786 10.0655 81.1022
lradius 23.1474
lwrist -13.8734
lhand -17.9923 25.3077
lfingers 7.12502
lthumb 8.27773 55.1255
rfemur 10.9745 2.03117 29.816
rtibia 17.2845
rfoot -16.0039 0.292384
rtoes 2.45652
lfemur -24.3903 -5.71616 -11.7362
ltibia 9.43832
lfoot -4.80234 10.9155
ltoes -21.2998
106
root -13.8752 17.6046 -0.859829 0.97255 -9.72065 -4.27425
lowerback 9.00595 3.09746 4.61836
upperback -0.406519 4.6759 1.10213
thorax -5.19664 2.19459 -2.04944
lowerneck -23.9616 -5.10608 -10.8112
upperneck 28.5208 -5.84128 8.21556
head 14.4147 -2.55388 4.0584
rclavicle -2.33945e-014 -7.15625e-015
rhumerus -22.8361 -7.39669 -82.5989
rradius 31.763
rwrist 5.7098
rhand -16.0774 9.4676
rfingers 7.12502
rthumb 10.1255 -20.2688
lclavicle -2.33945e-014 -7.15625e-015
lhumerus -38.8984 10.2185 81.1371
lradius 22.9674
lwrist -14.1401
lhand -17.8996 25.4855
lfingers 7.12502
lthumb 8.36728 55.2998
rfemur 11.5048 2.06965 29.7127
rtibia 17.1567
rfoot -15.6542 0.495057
rtoes 2.17249
lfemur -24.5151 -4.89104 -12.2316
ltibia 9.82753
lfoot -4.37354 10.1919
ltoes -19.5923
107
root -13.8752 17.5959 -0.707967 0.955958 -9.66469 -4.27981
lowerback 9.04753 3.07295 4.56276
upperback -0.407838 4.64334 1.16561
thorax -5.23326 2.17974 -1.95167
lowerneck -23.975 -5.09575 -10.8708
upperneck 28.4959 -5.79199 8.19792
head 14.4021 -2.54137 4.07007
rclavicle 6.06293e-015 2.31584e-014
rhumerus -22.7467 -7.46921 -82.5802
rradius 31.8171
rwrist 5.5297
rhand -16.0781 9.15939
rfingers 7.12502
rthumb 10.1248 -20.577
lclavicle 6.06293e-015 2.31584e-014
lhumerus -38.9772 10.4654 81.1376
lradius 22.7969
lwrist -14.3906
lhand -17.7193 25.9421
lfingers 7.12502
lthumb 8.54124 55.7494
rfemur 12.0471 2.09209 29.6459
rtibia 17.1455
rfoot -15.3494 0.777881
rtoes 0.618228
lfemur -24.5404 -4.10345 -12.719
ltibia 10.3016
lfoot -3.79968 9.43646
ltoes -18.0555
108
root -13.8749 17.5848 -0.551999 0.892554 -9.71752 -4.33302
lowerback 9.06557 3.07168 4.58339
upperback -0.323632 4.64319 1.20481
thorax -5.15656 2.1828 -1.92036
lowerneck -24.296 -5.13881 -10.8407
upperneck 28.6706 -5.82165 8.1405
head 14.5482 -2.55392 4.04034
rclavicle 2.12451e-014 3.01159e-014
rhumerus -22.6722 -7.4288 -82.6602
rradius 31.9711
rwrist 5.1639
rhand -16.1675 9.28778
rfingers 7.12502
rthumb 10.0386 -20.4528
lclavicle 2.12451e-014 3.01159e-014
lhumerus -38.8034 10.7536 81.0759
lradius 22.4949
lwrist -14.5748
lhand -17.6983 25.6653
lfingers 7.12502
lthumb 8.56145 55.4717
rfemur 12.6199 2.41751 29.6967
rtibia 17.2351
rfoot -15.0576 0.646709
rtoes -2.0021
lfemur -24.4429 -3.137 -13.2363
ltibia 10.8583
lfoot -3.46351 8.43318
ltoes -16.0519
109
root -13.8726 17.5751 -0.388887 0.821491 -9.80812 -4.29147
lowerback 9.05069 3.07474 4.58186
upperback -0.239819 4.64139 1.18558
thorax -5.05861 2.18557 -1.93507
lowerneck -24.6067 -5.21754 -10.8449
upperneck 28.7902 -5.8945 8.10358
head 14.6761 -2.58557 4.01409
rclavicle -3.92041e-014 -4.17448e-015
rhumerus -22.6801 -7.60658 -82.7492
rradius 32.1249
rwrist 5.09771
rhand -16.0399 9.58629
rfingers 7.12502
rthumb 10.1616 -20.1483
lclavicle -3.92041e-014 -4.17448e-015
lhumerus -38.6091 10.9846 81.0101
lradius 22.1364
lwrist -14.7462
lhand -18.3021 25.0354
lfingers 7.12502
lthumb 7.97875 54.8648
rfemur 13.1361 2.74993 29.6118
rtibia 17.4437
rfoot -14.7805 0.533786
rtoes -3.94718
lfemur -24.3053 -2.69756 -13.6587
ltibia 11.4515
lfoot -3.52488 7.69094
ltoes -13.9058
110
root -13.8666 17.5662 -0.213966 0.654414 -9.91666 -4.13654
lowerback 8.98002 3.13936 4.56788
upperback -0.188432 4.71442 1.08797
thorax -4.95294 2.22464 -2.03059
lowerneck -24.4617 -5.29028 -10.8204
upperneck 28.6637 -6.02788 8.12213
head 14.6054 -2.63868 3.98618
rclavicle -3.25634e-014 1.71949e-014
rhumerus -23.0392 -7.95277 -82.7622
rradius 32.3933
rwrist 5.09491
rhand -15.9505 9.65603
rfingers 7.12502
rthumb 10.2479 -20.0743
lclavicle -3.25634e-014 1.71949e-014
lhumerus -38.6422 11.0242 80.9165
lradius 21.9777
lwrist -14.957
lhand -18.4076 25.0494
lfingers 7.12502
lthumb 7.87694 54.8827
rfemur 13.7143 2.84902 29.3103
rtibia 17.8136
rfoot -14.5479 0.651357
rtoes -5.94264
lfemur -23.9608 -2.66947 -14.0921
ltibia 11.9972
lfoot -3.4569 6.91771
ltoes -13.3016
